<mxfile host="app.diagrams.net" agent="Mozilla/5.0 (X11; Ubuntu; Linux x86_64; rv:134.0) Gecko/20100101 Firefox/134.0" version="26.0.4">
  <diagram name="Page-1" id="5oP676gk9vlQOHq7Na9c">
    <mxGraphModel dx="1432" dy="895" grid="1" gridSize="10" guides="1" tooltips="1" connect="1" arrows="1" fold="1" page="1" pageScale="1" pageWidth="2339" pageHeight="3300" math="0" shadow="0">
      <root>
        <mxCell id="0" />
        <mxCell id="1" parent="0" />
        <mxCell id="zFGBI-jvaAA7gLcAK-EI-1" value="&lt;div align=&quot;center&quot;&gt;&lt;b&gt;&lt;font style=&quot;font-size: 17px;&quot;&gt;STRUCTURES&lt;/font&gt;&lt;/b&gt;&lt;/div&gt;&amp;nbsp;&lt;b&gt;&lt;font style=&quot;font-size: 16px;&quot;&gt;IMAGES&lt;/font&gt;&lt;/b&gt;" style="text;html=1;align=center;verticalAlign=middle;whiteSpace=wrap;rounded=0;labelBackgroundColor=none;fontColor=#46495D;" vertex="1" parent="1">
          <mxGeometry x="320" y="10" width="182" height="60" as="geometry" />
        </mxCell>
        <mxCell id="zFGBI-jvaAA7gLcAK-EI-3" value="&lt;div style=&quot;color: #cccccc;background-color: #1f1f1f;font-family: &#39;Droid Sans Mono&#39;, &#39;monospace&#39;, monospace;font-weight: normal;font-size: 14px;line-height: 19px;white-space: pre;&quot;&gt;&lt;div&gt;&lt;span style=&quot;color: #4ec9b0;&quot;&gt;t_img_sets&lt;/span&gt;&lt;/div&gt;&lt;div align=&quot;left&quot;&gt;&lt;span style=&quot;color: #4ec9b0;&quot;&gt;{&lt;/span&gt;&lt;/div&gt;&lt;div align=&quot;left&quot;&gt;&lt;span style=&quot;color: #4ec9b0;&quot;&gt; t_img1 **&lt;/span&gt;&lt;/div&gt;&lt;div align=&quot;left&quot;&gt;&lt;span style=&quot;color: #4ec9b0;&quot;&gt; &lt;/span&gt;&lt;span style=&quot;color: #4ec9b0;&quot;&gt;t_img2 **&lt;/span&gt;&lt;/div&gt;&lt;div align=&quot;left&quot;&gt;&lt;span style=&quot;color: #4ec9b0;&quot;&gt; &lt;/span&gt;&lt;span style=&quot;color: #4ec9b0;&quot;&gt;t_img3 **&lt;/span&gt;&lt;/div&gt;&lt;div align=&quot;left&quot;&gt;&lt;span style=&quot;color: #4ec9b0;&quot;&gt;}&lt;br&gt;&lt;/span&gt;&lt;/div&gt;&lt;/div&gt;" style="rounded=0;whiteSpace=wrap;html=1;labelBackgroundColor=none;fillColor=#B2C9AB;strokeColor=#788AA3;fontColor=#46495D;" vertex="1" parent="1">
          <mxGeometry x="294" y="120" width="240" height="120" as="geometry" />
        </mxCell>
        <mxCell id="zFGBI-jvaAA7gLcAK-EI-4" value="" style="endArrow=classic;html=1;rounded=0;exitX=0.167;exitY=0.992;exitDx=0;exitDy=0;exitPerimeter=0;strokeWidth=2;labelBackgroundColor=none;strokeColor=#788AA3;fontColor=default;" edge="1" parent="1" source="zFGBI-jvaAA7gLcAK-EI-3">
          <mxGeometry width="50" height="50" relative="1" as="geometry">
            <mxPoint x="404" y="380" as="sourcePoint" />
            <mxPoint x="214" y="320" as="targetPoint" />
          </mxGeometry>
        </mxCell>
        <mxCell id="zFGBI-jvaAA7gLcAK-EI-5" value="" style="endArrow=classic;html=1;rounded=0;exitX=0.5;exitY=1;exitDx=0;exitDy=0;strokeWidth=2;labelBackgroundColor=none;strokeColor=#788AA3;fontColor=default;" edge="1" parent="1" source="zFGBI-jvaAA7gLcAK-EI-3">
          <mxGeometry width="50" height="50" relative="1" as="geometry">
            <mxPoint x="404" y="380" as="sourcePoint" />
            <mxPoint x="414" y="320" as="targetPoint" />
          </mxGeometry>
        </mxCell>
        <mxCell id="zFGBI-jvaAA7gLcAK-EI-6" value="" style="endArrow=classic;html=1;rounded=0;exitX=0.833;exitY=1;exitDx=0;exitDy=0;exitPerimeter=0;strokeWidth=2;labelBackgroundColor=none;strokeColor=#788AA3;fontColor=default;" edge="1" parent="1" source="zFGBI-jvaAA7gLcAK-EI-3">
          <mxGeometry width="50" height="50" relative="1" as="geometry">
            <mxPoint x="404" y="380" as="sourcePoint" />
            <mxPoint x="614" y="320" as="targetPoint" />
          </mxGeometry>
        </mxCell>
        <mxCell id="zFGBI-jvaAA7gLcAK-EI-8" value="&lt;div style=&quot;color: rgb(204, 204, 204); background-color: rgb(31, 31, 31); font-family: &amp;quot;Droid Sans Mono&amp;quot;, &amp;quot;monospace&amp;quot;, monospace; font-weight: normal; font-size: 14px; line-height: 19px; white-space: pre;&quot;&gt;&lt;div&gt;&lt;span style=&quot;color: rgb(78, 201, 176);&quot;&gt;t_img_sets&lt;/span&gt;&lt;/div&gt;&lt;div align=&quot;left&quot;&gt;&lt;span style=&quot;color: rgb(78, 201, 176);&quot;&gt;{&lt;/span&gt;&lt;/div&gt;&lt;div align=&quot;left&quot;&gt;&lt;span style=&quot;color: rgb(78, 201, 176);&quot;&gt; t_img *&lt;/span&gt;&lt;/div&gt;&lt;div align=&quot;left&quot;&gt;&lt;span style=&quot;color: rgb(78, 201, 176);&quot;&gt;    X&lt;/span&gt;&lt;/div&gt;&lt;div align=&quot;left&quot;&gt;&lt;span style=&quot;color: rgb(78, 201, 176);&quot;&gt; IMAGE SET&lt;br&gt;&lt;/span&gt;&lt;/div&gt;&lt;div align=&quot;left&quot;&gt;&lt;span style=&quot;color: rgb(78, 201, 176);&quot;&gt;}&lt;br&gt;&lt;/span&gt;&lt;/div&gt;&lt;/div&gt;" style="rounded=0;whiteSpace=wrap;html=1;labelBackgroundColor=none;fillColor=#B2C9AB;strokeColor=#788AA3;fontColor=#46495D;" vertex="1" parent="1">
          <mxGeometry x="14" y="320" width="240" height="120" as="geometry" />
        </mxCell>
        <mxCell id="zFGBI-jvaAA7gLcAK-EI-11" value="&lt;div style=&quot;color: rgb(204, 204, 204); background-color: rgb(31, 31, 31); font-family: &amp;quot;Droid Sans Mono&amp;quot;, &amp;quot;monospace&amp;quot;, monospace; font-weight: normal; font-size: 14px; line-height: 19px; white-space: pre;&quot;&gt;&lt;div&gt;&lt;span style=&quot;color: rgb(78, 201, 176);&quot;&gt;t_img**&lt;/span&gt;&lt;/div&gt;&lt;div align=&quot;left&quot;&gt;&lt;span style=&quot;color: rgb(78, 201, 176);&quot;&gt;{&lt;/span&gt;&lt;/div&gt;&lt;div align=&quot;left&quot;&gt;&lt;span style=&quot;color: rgb(78, 201, 176);&quot;&gt; t_img *&lt;/span&gt;&lt;/div&gt;&lt;div align=&quot;left&quot;&gt;&lt;span style=&quot;color: rgb(78, 201, 176);&quot;&gt;    X&lt;/span&gt;&lt;/div&gt;&lt;div align=&quot;left&quot;&gt;&lt;span style=&quot;color: rgb(78, 201, 176);&quot;&gt; IMAGE SET&lt;br&gt;&lt;/span&gt;&lt;/div&gt;&lt;div align=&quot;left&quot;&gt;&lt;span style=&quot;color: rgb(78, 201, 176);&quot;&gt;}&lt;br&gt;&lt;/span&gt;&lt;/div&gt;&lt;/div&gt;" style="rounded=0;whiteSpace=wrap;html=1;labelBackgroundColor=none;fillColor=#B2C9AB;strokeColor=#788AA3;fontColor=#46495D;" vertex="1" parent="1">
          <mxGeometry x="294" y="320" width="240" height="120" as="geometry" />
        </mxCell>
        <mxCell id="zFGBI-jvaAA7gLcAK-EI-12" value="&lt;div style=&quot;color: rgb(204, 204, 204); background-color: rgb(31, 31, 31); font-family: &amp;quot;Droid Sans Mono&amp;quot;, &amp;quot;monospace&amp;quot;, monospace; font-weight: normal; font-size: 14px; line-height: 19px; white-space: pre;&quot;&gt;&lt;div&gt;&lt;span style=&quot;color: rgb(78, 201, 176);&quot;&gt;t_img**&lt;/span&gt;&lt;/div&gt;&lt;div align=&quot;left&quot;&gt;&lt;span style=&quot;color: rgb(78, 201, 176);&quot;&gt;{&lt;/span&gt;&lt;/div&gt;&lt;div align=&quot;left&quot;&gt;&lt;span style=&quot;color: rgb(78, 201, 176);&quot;&gt; t_img *&lt;/span&gt;&lt;/div&gt;&lt;div align=&quot;left&quot;&gt;&lt;span style=&quot;color: rgb(78, 201, 176);&quot;&gt;    X&lt;/span&gt;&lt;/div&gt;&lt;div align=&quot;left&quot;&gt;&lt;span style=&quot;color: rgb(78, 201, 176);&quot;&gt; IMAGE SET&lt;br&gt;&lt;/span&gt;&lt;/div&gt;&lt;div align=&quot;left&quot;&gt;&lt;span style=&quot;color: rgb(78, 201, 176);&quot;&gt;}&lt;br&gt;&lt;/span&gt;&lt;/div&gt;&lt;/div&gt;" style="rounded=0;whiteSpace=wrap;html=1;labelBackgroundColor=none;fillColor=#B2C9AB;strokeColor=#788AA3;fontColor=#46495D;" vertex="1" parent="1">
          <mxGeometry x="574" y="320" width="240" height="120" as="geometry" />
        </mxCell>
        <mxCell id="zFGBI-jvaAA7gLcAK-EI-14" value="&lt;div style=&quot;color: rgb(204, 204, 204); background-color: rgb(31, 31, 31); font-family: &amp;quot;Droid Sans Mono&amp;quot;, &amp;quot;monospace&amp;quot;, monospace; font-weight: normal; font-size: 14px; line-height: 19px; white-space: pre;&quot;&gt;&lt;div align=&quot;left&quot;&gt;&lt;div&gt;&lt;span style=&quot;color: rgb(78, 201, 176);&quot;&gt;t_img&lt;/span&gt;&lt;/div&gt;&lt;div align=&quot;left&quot;&gt;&lt;span style=&quot;color: rgb(78, 201, 176);&quot;&gt;{&lt;/span&gt;&lt;/div&gt;&lt;div align=&quot;left&quot;&gt;  &lt;span style=&quot;color: rgb(86, 156, 214);&quot;&gt;char&lt;/span&gt;&lt;span style=&quot;color: rgb(204, 204, 204);&quot;&gt;  &lt;/span&gt;&lt;span style=&quot;color: rgb(212, 212, 212);&quot;&gt;*&lt;/span&gt;&lt;span style=&quot;color: rgb(156, 220, 254);&quot;&gt;class&lt;/span&gt;&lt;/div&gt;&lt;div align=&quot;left&quot;&gt;&lt;span style=&quot;color: rgb(86, 156, 214);&quot;&gt;  int&lt;/span&gt;&lt;span style=&quot;color: rgb(204, 204, 204);&quot;&gt;  &lt;/span&gt;&lt;span style=&quot;color: rgb(156, 220, 254);&quot;&gt;set&lt;/span&gt;&lt;span style=&quot;color: rgb(204, 204, 204);&quot;&gt;;&lt;/span&gt;&lt;/div&gt;&lt;div align=&quot;left&quot;&gt;  &lt;span style=&quot;color: rgb(86, 156, 214);&quot;&gt;int&lt;/span&gt;&lt;span style=&quot;color: rgb(204, 204, 204);&quot;&gt;  &lt;/span&gt;&lt;span style=&quot;color: rgb(156, 220, 254);&quot;&gt;frame_size&lt;/span&gt;;&lt;/div&gt;&lt;div align=&quot;left&quot;&gt;&lt;span style=&quot;color: rgb(86, 156, 214);&quot;&gt;  void&lt;/span&gt;&lt;span style=&quot;color: rgb(204, 204, 204);&quot;&gt; &lt;/span&gt;&lt;span style=&quot;color: rgb(212, 212, 212);&quot;&gt;*&lt;/span&gt;&lt;span style=&quot;color: rgb(156, 220, 254);&quot;&gt;img&lt;/span&gt;;&lt;/div&gt;&lt;div align=&quot;left&quot;&gt;&lt;span style=&quot;color: rgb(86, 156, 214);&quot;&gt;  char&lt;/span&gt;&lt;span style=&quot;color: rgb(204, 204, 204);&quot;&gt; &lt;/span&gt;&lt;span style=&quot;color: rgb(212, 212, 212);&quot;&gt;*&lt;/span&gt;&lt;span style=&quot;color: rgb(156, 220, 254);&quot;&gt;addr&lt;/span&gt;&lt;span style=&quot;color: rgb(204, 204, 204);&quot;&gt;;&lt;/span&gt;&lt;/div&gt;&lt;/div&gt;&lt;div&gt;&lt;span style=&quot;color: rgb(204, 204, 204);&quot;&gt;  &lt;/span&gt;&lt;span style=&quot;color: rgb(86, 156, 214);&quot;&gt;int&lt;/span&gt;&lt;span style=&quot;color: rgb(204, 204, 204);&quot;&gt;  &lt;/span&gt;&lt;span style=&quot;color: rgb(156, 220, 254);&quot;&gt;bit_per_pixel&lt;/span&gt;&lt;span style=&quot;color: rgb(204, 204, 204);&quot;&gt;;&lt;/span&gt;&lt;/div&gt;&lt;div&gt;&lt;span style=&quot;color: rgb(86, 156, 214);&quot;&gt;int&lt;/span&gt;&lt;span style=&quot;color: rgb(204, 204, 204);&quot;&gt;  &lt;/span&gt;&lt;span style=&quot;color: rgb(156, 220, 254);&quot;&gt;line_length&lt;/span&gt;;&lt;/div&gt;&lt;div align=&quot;left&quot;&gt;&lt;span style=&quot;color: rgb(86, 156, 214);&quot;&gt;  int&lt;/span&gt;&lt;span style=&quot;color: rgb(204, 204, 204);&quot;&gt;  &lt;/span&gt;&lt;span style=&quot;color: rgb(156, 220, 254);&quot;&gt;endian&lt;/span&gt;&lt;span style=&quot;color: rgb(204, 204, 204);&quot;&gt;;&lt;/span&gt;&lt;/div&gt;&lt;div align=&quot;left&quot;&gt;&lt;span style=&quot;color: rgb(204, 204, 204);&quot;&gt;  &lt;/span&gt;&lt;span style=&quot;color: rgb(86, 156, 214);&quot;&gt;int&lt;/span&gt;&lt;span style=&quot;color: rgb(204, 204, 204);&quot;&gt;  &lt;/span&gt;&lt;span style=&quot;color: rgb(156, 220, 254);&quot;&gt;width&lt;/span&gt;&lt;span style=&quot;color: rgb(204, 204, 204);&quot;&gt;;&lt;/span&gt;&lt;/div&gt;&lt;div align=&quot;left&quot;&gt;&lt;span style=&quot;color: rgb(204, 204, 204);&quot;&gt;  &lt;/span&gt;&lt;span style=&quot;color: rgb(86, 156, 214);&quot;&gt;int&lt;/span&gt;&lt;span style=&quot;color: rgb(204, 204, 204);&quot;&gt;  &lt;/span&gt;&lt;span style=&quot;color: rgb(156, 220, 254);&quot;&gt;height&lt;/span&gt;&lt;span style=&quot;color: rgb(204, 204, 204);&quot;&gt;;&lt;/span&gt;&lt;/div&gt;&lt;div align=&quot;left&quot;&gt;&lt;span style=&quot;color: rgb(78, 201, 176);&quot;&gt;}&lt;/span&gt;&lt;/div&gt;&lt;/div&gt;" style="rounded=0;whiteSpace=wrap;html=1;labelBackgroundColor=none;fillColor=#B2C9AB;strokeColor=#788AA3;fontColor=#46495D;" vertex="1" parent="1">
          <mxGeometry x="294" y="560" width="240" height="255" as="geometry" />
        </mxCell>
        <mxCell id="zFGBI-jvaAA7gLcAK-EI-15" value="" style="endArrow=classic;html=1;rounded=0;exitX=0.5;exitY=1;exitDx=0;exitDy=0;entryX=0;entryY=0.5;entryDx=0;entryDy=0;strokeWidth=2;labelBackgroundColor=none;strokeColor=#788AA3;fontColor=default;" edge="1" parent="1" source="zFGBI-jvaAA7gLcAK-EI-8" target="zFGBI-jvaAA7gLcAK-EI-14">
          <mxGeometry width="50" height="50" relative="1" as="geometry">
            <mxPoint x="390" y="650" as="sourcePoint" />
            <mxPoint x="440" y="600" as="targetPoint" />
          </mxGeometry>
        </mxCell>
        <mxCell id="zFGBI-jvaAA7gLcAK-EI-16" value="" style="endArrow=classic;html=1;rounded=0;exitX=0.5;exitY=1;exitDx=0;exitDy=0;entryX=1;entryY=0.5;entryDx=0;entryDy=0;strokeWidth=2;labelBackgroundColor=none;strokeColor=#788AA3;fontColor=default;" edge="1" parent="1" source="zFGBI-jvaAA7gLcAK-EI-12" target="zFGBI-jvaAA7gLcAK-EI-14">
          <mxGeometry width="50" height="50" relative="1" as="geometry">
            <mxPoint x="144" y="450" as="sourcePoint" />
            <mxPoint x="304" y="698" as="targetPoint" />
          </mxGeometry>
        </mxCell>
        <mxCell id="zFGBI-jvaAA7gLcAK-EI-17" value="" style="endArrow=classic;html=1;rounded=0;exitX=0.5;exitY=1;exitDx=0;exitDy=0;entryX=0.5;entryY=0;entryDx=0;entryDy=0;strokeWidth=2;labelBackgroundColor=none;strokeColor=#788AA3;fontColor=default;" edge="1" parent="1" source="zFGBI-jvaAA7gLcAK-EI-11" target="zFGBI-jvaAA7gLcAK-EI-14">
          <mxGeometry width="50" height="50" relative="1" as="geometry">
            <mxPoint x="390" y="650" as="sourcePoint" />
            <mxPoint x="440" y="600" as="targetPoint" />
          </mxGeometry>
        </mxCell>
        <mxCell id="zFGBI-jvaAA7gLcAK-EI-19" value="&lt;div&gt;La structure d&#39;image principale contiens trois tableau de pointeur.&lt;/div&gt;&lt;div&gt;Ces pointeur sont de type t_img*.&lt;/div&gt;&lt;div&gt;Le set 1 est composer des t_img*&amp;nbsp; qui sont utiliser quelque soit le sens du jeu.&lt;/div&gt;&lt;div&gt;Le set 2 est composé des t_img* qui sont utilisé lors que l&#39;etat du jeu est defini sur left.&lt;/div&gt;&lt;div&gt;Le set 2 est composé des t_img* qui sont utilisé lors que l&#39;etat du jeu est defini sur right.&lt;/div&gt;&lt;div&gt;&lt;br&gt;&lt;/div&gt;&lt;div align=&quot;left&quot;&gt;Nombre d&#39;allocation dynamique:&lt;/div&gt;&lt;div align=&quot;left&quot;&gt;&lt;span style=&quot;white-space: pre;&quot;&gt;&#x9;&lt;/span&gt;t_img_sets:&lt;span style=&quot;white-space: pre;&quot;&gt;&#x9;&lt;/span&gt;*1&lt;/div&gt;&lt;div align=&quot;left&quot;&gt;&lt;span style=&quot;white-space: pre;&quot;&gt;&#x9;&lt;/span&gt;t_img**:&lt;span style=&quot;white-space: pre;&quot;&gt;&#x9;&lt;/span&gt;&lt;span style=&quot;white-space: pre;&quot;&gt;&#x9;&lt;/span&gt;*3&lt;/div&gt;&lt;div align=&quot;left&quot;&gt;&lt;span style=&quot;white-space: pre;&quot;&gt;&#x9;&lt;/span&gt;t_img*:&lt;span style=&quot;white-space: pre;&quot;&gt;&#x9;&lt;/span&gt;&lt;span style=&quot;white-space: pre;&quot;&gt;&#x9;&lt;/span&gt;*SET_SIZE&lt;br&gt;&lt;/div&gt;" style="rounded=0;whiteSpace=wrap;html=1;strokeWidth=2;" vertex="1" parent="1">
          <mxGeometry x="600" y="40" width="360" height="200" as="geometry" />
        </mxCell>
      </root>
    </mxGraphModel>
  </diagram>
</mxfile>
